<svg width="14" height="14" viewBox="0 0 14 14" fill="none" xmlns="http://www.w3.org/2000/svg">
<g id="website-ui-web-svgrepo-com 1" clip-path="url(#clip0_334_6207)">
<path id="Vector" d="M7 0C3.134 0 0 3.134 0 7C0 10.866 3.134 14 7 14C10.866 14 14 10.866 14 7C14 3.134 10.866 0 7 0ZM11.4372 3.99219H10.1612C10.0145 3.3766 9.82417 2.81058 9.59823 2.31016C10.0299 2.55013 10.4308 2.85149 10.7897 3.21035C11.0322 3.45289 11.2483 3.71476 11.4372 3.99219ZM12.3594 7C12.3594 7.4678 12.2995 7.92632 12.184 8.36719H10.4331C10.4768 7.92498 10.5 7.46793 10.5 7C10.5 6.53207 10.4768 6.07502 10.4331 5.63281H12.184C12.2995 6.07368 12.3594 6.5322 12.3594 7ZM7 12.3594C6.85781 12.3594 6.42447 12.0799 5.99255 11.2161C5.81364 10.8582 5.6601 10.4506 5.53448 10.0078H8.46549C8.33987 10.4506 8.18636 10.8582 8.00743 11.2161C7.57553 12.0799 7.14219 12.3594 7 12.3594ZM5.21754 8.36719C5.16704 7.92293 5.14062 7.46405 5.14062 7C5.14062 6.53595 5.16704 6.07707 5.21754 5.63281H8.78246C8.83296 6.07707 8.85938 6.53595 8.85938 7C8.85938 7.46405 8.83296 7.92293 8.78246 8.36719H5.21754ZM1.64062 7C1.64062 6.5322 1.70054 6.07368 1.81601 5.63281H3.56694C3.52316 6.07502 3.5 6.53207 3.5 7C3.5 7.46793 3.52316 7.92498 3.56694 8.36719H1.81601C1.70054 7.92632 1.64062 7.4678 1.64062 7ZM7 1.64062C7.14219 1.64062 7.57553 1.92011 8.00745 2.78395C8.18636 3.1418 8.3399 3.54941 8.46552 3.99219H5.53448C5.6601 3.54944 5.81361 3.1418 5.99255 2.78395C6.42447 1.92011 6.85781 1.64062 7 1.64062ZM4.40177 2.31016C4.1758 2.81058 3.98554 3.37657 3.83884 3.99219H2.56279C2.75171 3.71476 2.96781 3.45289 3.21035 3.21035C3.56921 2.85149 3.97012 2.55013 4.40177 2.31016ZM2.56279 10.0078H3.83884C3.98554 10.6234 4.17583 11.1894 4.40177 11.6898C3.97012 11.4499 3.56918 11.1485 3.21035 10.7897C2.96781 10.5471 2.75168 10.2852 2.56279 10.0078ZM9.59823 11.6898C9.8242 11.1894 10.0145 10.6234 10.1612 10.0078H11.4372C11.2483 10.2852 11.0322 10.5471 10.7897 10.7897C10.4308 11.1485 10.0299 11.4499 9.59823 11.6898Z" fill="#EE1D52"/>
</g>
<defs>
<clipPath id="clip0_334_6207">
<rect width="14" height="14" fill="white"/>
</clipPath>
</defs>
</svg>
