<svg width="24" height="24" viewBox="0 0 24 24" fill="none" xmlns="http://www.w3.org/2000/svg">
<g id="Frame 2434">
<g id="Mask group">
<mask id="mask0_718_2653" style="mask-type:luminance" maskUnits="userSpaceOnUse" x="0" y="0" width="24" height="24">
<g id="Group">
<path id="Vector" d="M24 12C24 5.37259 18.6274 0 12 0C5.37259 0 0 5.37259 0 12C0 18.6274 5.37259 24 12 24C18.6274 24 24 18.6274 24 12Z" fill="white"/>
</g>
</mask>
<g mask="url(#mask0_718_2653)">
<g id="Group_2">
<path id="Vector_2" d="M24 12C24 5.37259 18.6274 0 12 0C5.37259 0 0 5.37259 0 12C0 18.6274 5.37259 24 12 24C18.6274 24 24 18.6274 24 12Z" fill="#072A85"/>
<g id="Mask group_2">
<mask id="mask1_718_2653" style="mask-type:luminance" maskUnits="userSpaceOnUse" x="0" y="0" width="24" height="24">
<g id="Group_3">
<path id="Vector_3" d="M24 0H0V24H24V0Z" fill="white"/>
</g>
</mask>
<g mask="url(#mask1_718_2653)">
<g id="Group_4">
<path id="Vector_4" d="M24 12C24 5.37259 18.6274 0 12 0C5.37259 0 0 5.37259 0 12C0 18.6274 5.37259 24 12 24C18.6274 24 24 18.6274 24 12Z" fill="#072A85"/>
<path id="Vector_5" d="M15.1633 8.35059H8.03617C7.64135 8.35059 7.32316 8.64523 7.32316 9.00763V13.8337C7.32316 14.1961 7.64135 14.4907 8.03617 14.4907H15.1604C15.5552 14.4907 15.8734 14.1961 15.8734 13.8337V9.00763C15.8763 8.64523 15.5581 8.35059 15.1633 8.35059ZM15.231 13.7512C15.231 13.7954 15.1898 13.8337 15.1426 13.8337H8.05679C8.00672 13.8337 7.96842 13.7954 7.96842 13.7512V11.4207H15.231V13.7512ZM15.231 9.66468H7.96842V9.09012C7.96842 9.04594 8.00965 9.00763 8.05679 9.00763H15.1397C15.1898 9.00763 15.2281 9.04594 15.2281 9.09012V9.66468H15.231ZM8.58414 12.7023H10.0749V13.2857H8.58414V12.7023ZM10.6554 12.7023H12.8121V13.2857H10.6554V12.7023ZM18.8265 13.7912L15.9221 16.5452C15.9952 16.7222 16.0286 16.9386 16.0063 17.1405C15.9871 17.561 15.8147 17.9616 15.52 18.2616C15.2183 18.55 14.8106 18.7121 14.3833 18.6813L10.4022 18.547C10.214 18.5481 10.0942 18.3986 10.1 18.222C10.1059 18.0454 10.2485 17.914 10.4133 17.9268L14.4062 18.0542C14.9289 18.06 15.3684 17.6589 15.3929 17.1409C15.4173 16.623 14.9976 16.1786 14.4796 16.1541L9.51347 16.0038C8.69819 15.9819 7.83776 16.0968 7.37752 16.8092L3.5625 22.5058L6.85715 23.9997L8.61369 20.8464C8.9037 20.5649 9.31825 20.4146 9.75033 20.4268L13.2067 20.5248C14.0522 20.5447 14.8654 20.1902 15.4153 19.6294L20.1367 15.157C20.5133 14.8087 20.5498 14.205 20.1692 13.8004C19.8046 13.4494 19.2146 13.436 18.8265 13.7912Z" fill="white"/>
<path id="Vector_6" d="M5.14307 6.85736C5.14307 5.91059 5.91059 5.14307 6.85734 5.14307H15.4288C16.3755 5.14307 17.1431 5.91059 17.1431 6.85736V13.7145C17.1431 14.6613 16.3755 15.4288 15.4288 15.4288H6.85734C5.91059 15.4288 5.14307 14.6613 5.14307 13.7145V6.85736Z" fill="#072A85"/>
<path id="Vector_7" d="M15.8535 10.64C15.832 10.64 15.8106 10.64 15.8106 10.64C15.467 10.5971 15.1878 10.5112 14.9302 10.3179C14.9087 10.2965 14.9087 10.2965 14.8872 10.2965C14.7584 10.1891 14.651 10.2535 14.5866 10.275L14.5651 10.2965C14.243 10.5327 13.878 10.6615 13.4485 10.6615C12.9976 10.6615 12.6325 10.5327 12.2889 10.275C12.1601 10.1891 12.0742 10.275 12.0742 10.275C11.7306 10.5541 11.3441 10.683 10.8932 10.683C10.4637 10.683 10.0772 10.5541 9.75508 10.2965C9.73362 10.275 9.71214 10.275 9.71214 10.2535C9.60477 10.1676 9.49741 10.2535 9.49741 10.2535C9.17531 10.5112 8.81025 10.64 8.40227 10.6615C8.40227 10.6615 8.27344 10.6615 8.27344 10.8118V13.3886C8.27344 13.6033 8.27344 13.8396 8.27344 14.0113C8.27344 14.0758 8.31637 14.2261 8.50965 14.269H12.4822C12.6969 14.2261 12.7184 14.0758 12.7184 14.0113C12.7184 13.8396 12.7184 13.6248 12.7184 13.3886C12.7184 12.8303 12.7184 12.2935 12.7184 11.7352C12.7399 11.6708 12.7614 11.6063 12.9331 11.6063C13.5344 11.6063 14.1357 11.6063 14.7369 11.6063C14.7798 11.6063 14.8013 11.6063 14.8443 11.6063C14.9087 11.6278 14.9731 11.6708 14.9731 11.8211C14.9731 12.3579 14.9731 12.8733 14.9731 13.3886C14.9731 13.6033 14.9731 13.7966 14.9731 13.9684C14.9731 14.2046 15.1449 14.2476 15.1878 14.2476H15.7891C15.832 14.2476 16.0038 14.2046 16.0038 13.9684C16.0038 13.7966 16.0038 13.6033 16.0038 13.3886V10.8762C16.0253 10.7044 15.9394 10.6615 15.8535 10.64ZM11.5803 13.1095C11.5803 13.1309 11.5803 13.1524 11.5803 13.1739C11.5803 13.2598 11.5374 13.3886 11.3226 13.3886C10.7428 13.3886 10.1631 13.3886 9.58329 13.3886C9.39004 13.3886 9.3471 13.3027 9.32562 13.2168C9.32562 13.1954 9.32562 13.1739 9.32562 13.1309C9.32562 12.7444 9.32562 12.315 9.32562 11.907C9.32562 11.6063 9.49741 11.5849 9.56183 11.5849C10.1631 11.5849 10.7858 11.5849 11.3871 11.5849C11.4515 11.5849 11.6018 11.6278 11.6018 11.864C11.5803 12.2935 11.5803 12.7015 11.5803 13.1095Z" fill="white"/>
<path id="Vector_8" d="M15.6814 9.7805C16.1538 9.90933 16.5618 9.82346 16.9053 9.47987C17.12 9.26514 17.2704 9.00746 17.3133 8.72831C17.3133 8.70683 17.3133 8.68535 17.3133 8.68535C17.2704 8.57798 17.2274 8.47062 17.1846 8.38473C16.6691 7.46138 16.1753 6.53802 15.6814 5.61467C15.6169 5.48584 15.4666 5.48584 15.4237 5.48584H8.87429C8.87429 5.48584 8.68104 5.48584 8.61663 5.61467C8.10125 6.53802 7.60738 7.48286 7.11348 8.38473C7.07055 8.47062 7.02759 8.59946 7.02759 8.72831C7.02759 8.74977 7.02759 8.74977 7.02759 8.77125C7.07057 9.07187 7.19938 9.32956 7.41413 9.52281C7.80065 9.86639 8.23011 9.95226 8.74546 9.7805C9.02463 9.67312 9.21788 9.50135 9.38967 9.24366C9.41115 9.22218 9.43263 9.2007 9.45411 9.17922C9.56148 9.11483 9.69029 9.13629 9.77619 9.24366C9.86206 9.3725 9.96946 9.50135 10.0983 9.58722C10.4634 9.86639 10.8714 9.90933 11.3008 9.7805C11.5799 9.6946 11.7947 9.50135 11.945 9.24366C12.0309 9.11483 12.2456 9.09335 12.3315 9.24366C12.3745 9.2866 12.3959 9.35102 12.4389 9.39398C12.6536 9.65166 12.9328 9.80198 13.2549 9.84491C13.5555 9.88785 13.8561 9.80198 14.1353 9.63018C14.2856 9.52281 14.4144 9.39398 14.5003 9.24366C14.6077 9.11483 14.8009 9.11483 14.8868 9.24366C15.0586 9.52281 15.2733 9.6946 15.5954 9.7805H15.6814Z" fill="white"/>
</g>
</g>
</g>
</g>
</g>
</g>
</g>
</svg>
