<svg width="80" height="80" viewBox="0 0 80 80" fill="none" xmlns="http://www.w3.org/2000/svg">
<rect width="80" height="80" rx="40" fill="#F56412"/>
<path d="M46.6667 36.0003V33.3337C46.6667 29.6003 43.7333 26.667 40 26.667C36.2667 26.667 33.3333 29.6003 33.3333 33.3337V36.0003C31.0667 36.0003 29.3333 37.7337 29.3333 40.0003V49.3337C29.3333 51.6003 31.0667 53.3337 33.3333 53.3337H46.6667C48.9333 53.3337 50.6667 51.6003 50.6667 49.3337V40.0003C50.6667 37.7337 48.9333 36.0003 46.6667 36.0003ZM36 33.3337C36 31.067 37.7333 29.3337 40 29.3337C42.2667 29.3337 44 31.067 44 33.3337V36.0003H36V33.3337ZM41.4667 44.667L41.3333 44.8003V46.667C41.3333 47.467 40.8 48.0003 40 48.0003C39.2 48.0003 38.6667 47.467 38.6667 46.667V44.8003C37.8667 44.0003 37.7333 42.8003 38.5333 42.0003C39.3333 41.2003 40.5333 41.067 41.3333 41.867C42.1333 42.5337 42.2667 43.867 41.4667 44.667Z" fill="white"/>
</svg>
