<svg xmlns="http://www.w3.org/2000/svg" width="240" height="115" viewBox="0 0 240 115" fill="none">
  <path d="M239.918 21.293H179.918V104.688H239.918V21.293Z" fill="white"/>
  <path d="M239.918 21.293H179.918V51.4784H239.918V21.293Z" fill="#436CD5"/>
  <path d="M229.529 58.8663C229.529 58.9166 221.28 58.9572 211.107 58.9572C200.93 58.9572 192.683 58.9163 192.683 58.8663C192.683 58.8163 200.93 58.7754 211.107 58.7754C221.28 58.775 229.529 58.8159 229.529 58.8663Z" fill="#263238"/>
  <path d="M229.529 66.9991C229.529 67.0494 221.28 67.09 211.107 67.09C200.93 67.09 192.683 67.0491 192.683 66.9991C192.683 66.9488 200.93 66.9082 211.107 66.9082C221.28 66.9082 229.529 66.9488 229.529 66.9991Z" fill="#263238"/>
  <path d="M229.529 75.126C229.529 75.1764 221.28 75.2169 211.107 75.2169C200.93 75.2169 192.683 75.176 192.683 75.126C192.683 75.0761 200.93 75.0352 211.107 75.0352C221.28 75.0352 229.529 75.0757 229.529 75.126Z" fill="#263238"/>
  <path d="M229.377 98.0038H193.336C189.792 98.0038 186.919 95.131 186.919 91.5869V90.915C186.919 87.3709 189.792 84.498 193.336 84.498H229.377C232.921 84.498 235.794 87.3709 235.794 90.915V91.5869C235.794 95.131 232.921 98.0038 229.377 98.0038Z" fill="#436CD5"/>
  <path d="M188.934 60.3829C188.811 60.3829 188.688 60.3399 188.588 60.2521L187.562 59.3488C187.344 59.1576 187.323 58.8262 187.514 58.6087C187.705 58.3913 188.037 58.37 188.254 58.5615L188.893 59.1233L190.341 57.5243C190.536 57.309 190.867 57.2929 191.082 57.4876C191.296 57.682 191.313 58.0134 191.119 58.2284L189.323 60.2105C189.22 60.3248 189.077 60.3829 188.934 60.3829Z" fill="#436CD5"/>
  <path d="M188.934 68.5097C188.811 68.5097 188.688 68.4667 188.588 68.3789L187.562 67.4756C187.344 67.2844 187.323 66.953 187.514 66.7355C187.705 66.5181 188.037 66.4968 188.254 66.6884L188.893 67.2501L190.341 65.6511C190.536 65.4358 190.867 65.4201 191.082 65.6144C191.296 65.8091 191.313 66.1406 191.119 66.3552L189.323 68.3373C189.22 68.4516 189.077 68.5097 188.934 68.5097Z" fill="#436CD5"/>
  <path d="M188.934 76.6427C188.811 76.6427 188.688 76.5997 188.588 76.512L187.561 75.6083C187.344 75.4167 187.323 75.0857 187.514 74.8682C187.706 74.6511 188.037 74.6295 188.254 74.821L188.893 75.3828L190.341 73.7838C190.536 73.5688 190.867 73.5528 191.081 73.7471C191.296 73.9418 191.312 74.2732 191.118 74.4879L189.323 76.4704C189.22 76.5847 189.077 76.6427 188.934 76.6427Z" fill="#436CD5"/>
  <path d="M213.493 29.3613L214.358 31.1145L216.293 31.3955L214.893 32.7603L215.223 34.6872L213.493 33.7776L211.763 34.6872L212.093 32.7603L210.693 31.3955L212.628 31.1145L213.493 29.3613Z" fill="white"/>
  <path d="M206.694 29.3613L207.56 31.1145L209.494 31.3955L208.094 32.7603L208.425 34.6872L206.694 33.7776L204.964 34.6872L205.294 32.7603L203.894 31.3955L205.829 31.1145L206.694 29.3613Z" fill="white"/>
  <path d="M212.191 36.5821L209.918 35.3541L207.619 36.5297L208.084 33.9889L206.255 32.1648L208.815 31.8226L209.985 29.5195L211.102 31.8488L213.654 32.2494L211.783 34.0312L212.191 36.5821Z" fill="white"/>
  <path d="M205.807 32.0118L208.679 31.6283L209.991 29.0449L211.243 31.6574L214.106 32.1069L212.008 34.1055L212.465 36.9665L209.916 35.5891L207.337 36.9077L207.859 34.0579L205.807 32.0118ZM213.202 32.389L210.961 32.037L209.98 29.9909L208.952 32.0139L206.703 32.3142L208.31 33.9164L207.901 36.1481L209.921 35.1154L211.917 36.1942L211.559 33.9538L213.202 32.389Z" fill="#436CD5"/>
  <path d="M239.917 104.691C239.917 103.959 239.883 70.5906 239.835 21.296L239.917 21.3785C221.812 21.3809 201.42 21.3837 179.925 21.3869H179.918L180.009 21.296C180.002 52.499 179.996 81.371 179.992 104.691L179.917 104.618C216.317 104.662 239.308 104.691 239.917 104.691C239.309 104.692 216.317 104.72 179.918 104.765H179.844V104.691C179.839 81.371 179.833 52.4994 179.827 21.296V21.2051H179.917H179.924C201.42 21.2082 221.811 21.211 239.917 21.2135H240V21.296C239.951 70.5906 239.918 103.96 239.917 104.691Z" fill="#263238"/>
  <path d="M60.0907 21.293H0.0911865V104.688H60.0907V21.293Z" fill="white"/>
  <path d="M60.0907 21.293H0.0911865V51.4784H60.0907V21.293Z" fill="#436CD5"/>
  <path d="M49.702 58.8663C49.702 58.9166 41.4533 58.9572 31.2801 58.9572C21.1034 58.9572 12.8564 58.9163 12.8564 58.8663C12.8564 58.8163 21.1034 58.7754 31.2801 58.7754C41.4533 58.775 49.702 58.8159 49.702 58.8663Z" fill="#263238"/>
  <path d="M49.7019 66.9991C49.7019 67.0494 41.4531 67.09 31.2799 67.09C21.1032 67.09 12.8562 67.0491 12.8562 66.9991C12.8562 66.9488 21.1032 66.9082 31.2799 66.9082C41.4531 66.9082 49.7019 66.9488 49.7019 66.9991Z" fill="#263238"/>
  <path d="M49.7019 75.126C49.7019 75.1764 41.4531 75.2169 31.2799 75.2169C21.1032 75.2169 12.8562 75.176 12.8562 75.126C12.8562 75.0761 21.1032 75.0352 31.2799 75.0352C41.4531 75.0352 49.7019 75.0757 49.7019 75.126Z" fill="#263238"/>
  <path d="M49.5503 98.0038H13.5097C9.96564 98.0038 7.09277 95.131 7.09277 91.5869V90.915C7.09277 87.3709 9.96564 84.498 13.5097 84.498H49.5503C53.0943 84.498 55.9672 87.3709 55.9672 90.915V91.5869C55.9672 95.131 53.0943 98.0038 49.5503 98.0038Z" fill="#436CD5"/>
  <path d="M9.10799 60.3825C8.98494 60.3825 8.86119 60.3395 8.7619 60.2517L7.73518 59.3484C7.51774 59.1572 7.49642 58.8258 7.68799 58.6083C7.87956 58.3909 8.21096 58.3699 8.42805 58.5612L9.06674 59.1229L10.5147 57.5239C10.7091 57.3093 11.0405 57.2929 11.2555 57.4872C11.4701 57.6816 11.4866 58.013 11.2922 58.228L9.49708 60.2101C9.39325 60.3244 9.25097 60.3825 9.10799 60.3825Z" fill="#436CD5"/>
  <path d="M9.10817 68.5094C8.98512 68.5094 8.86137 68.4664 8.76209 68.3787L7.73536 67.4754C7.51792 67.2841 7.4966 66.9527 7.68817 66.7353C7.87974 66.5179 8.21115 66.4965 8.42824 66.6881L9.06692 67.2499L10.5149 65.6509C10.7093 65.4363 11.0407 65.4198 11.2557 65.6142C11.4703 65.8089 11.4867 66.1403 11.2924 66.355L9.49726 68.3371C9.39343 68.4514 9.25115 68.5094 9.10817 68.5094Z" fill="#436CD5"/>
  <path d="M9.10802 76.6426C8.98496 76.6426 8.86121 76.5996 8.76158 76.5118L7.73486 75.6082C7.51742 75.417 7.49644 75.0856 7.68766 74.8681C7.87923 74.6507 8.21064 74.6297 8.42773 74.8209L9.06641 75.3827L10.5144 73.7837C10.7088 73.5691 11.0402 73.5526 11.2552 73.747C11.4698 73.9417 11.4862 74.2731 11.2919 74.4878L9.49675 76.4703C9.39328 76.5846 9.251 76.6426 9.10802 76.6426Z" fill="#436CD5"/>
  <path d="M32.3644 36.5821L30.0918 35.3541L27.7919 36.5297L28.2575 33.9889L26.4285 32.1648L28.9892 31.8226L30.1586 29.5195L31.2755 31.8488L33.8271 32.2494L31.9568 34.0312L32.3644 36.5821Z" fill="white"/>
  <path d="M60.0908 104.691C60.0901 103.959 60.0569 70.5906 60.0083 21.296L60.0908 21.3785C41.9852 21.3809 21.5937 21.3837 0.0982321 21.3869H0.0912409L0.182132 21.296C0.17584 52.499 0.169897 81.371 0.165003 104.691L0.0908916 104.618C36.4905 104.662 59.4818 104.691 60.0908 104.691C59.4822 104.692 36.4905 104.72 0.0912409 104.765H0.0171295V104.691C0.0122353 81.371 0.00664207 52.4994 0 21.296V21.2051H0.0908916H0.0978827C21.5934 21.2082 41.9849 21.211 60.0905 21.2135H60.1733V21.296C60.1244 70.5906 60.0915 103.96 60.0908 104.691Z" fill="#263238"/>
  <path d="M191.429 10.6983C192.23 9.3639 191.622 7.39401 190.208 6.74343C190.502 4.85779 189.005 2.88264 187.11 2.65576C186.209 2.54774 185.297 2.78581 184.392 2.71449C183.522 2.64598 182.7 2.29604 181.842 2.14083C180.984 1.98561 179.993 2.07231 179.405 2.71659C178.751 3.43254 178.851 4.60224 179.37 5.42096C179.889 6.23968 180.73 6.78923 181.546 7.31325C181.061 7.26256 180.626 7.70653 180.546 8.18791C180.466 8.66928 180.661 9.1566 180.922 9.56876C181.789 10.937 183.475 11.7379 185.083 11.5453L187.365 11.4806C188.604 12.4224 190.629 12.033 191.429 10.6983Z" fill="#263238"/>
  <path d="M184.215 12.9434C183.75 13.0162 183.286 12.6372 183.193 12.1761C183.101 11.715 183.335 11.2259 183.708 10.94C184.081 10.6537 184.571 10.5509 185.041 10.5733C185.511 10.5956 185.967 10.7341 186.411 10.8896C187.096 11.1298 187.77 11.4158 188.378 11.8122C188.594 11.9527 188.806 12.1128 188.94 12.3327C189.073 12.553 189.114 12.8459 188.98 13.0661C188.793 13.3759 188.37 13.422 188.008 13.4255C186.658 13.4391 185.307 13.3301 183.976 13.1004" fill="#072A85"/>
  <path d="M183.463 12.1995C183.194 9.64052 179.581 7.34411 178.024 7.75452C177.284 6.25586 175.222 5.59026 173.745 6.37402C172.328 5.74477 170.911 5.11588 169.494 4.48698C168.769 4.16501 168.004 3.83605 167.214 3.90597C166.424 3.97589 165.622 4.59744 165.649 5.3903C164.112 4.77888 162.196 6.32893 162.473 7.95973C161.539 8.12718 160.896 9.22347 161.205 10.1201C159.304 10.5903 157.484 11.3884 155.85 12.4679C155.166 12.9196 154.475 13.4761 154.25 14.2641C154.026 15.0521 154.527 16.077 155.347 16.0837C154.613 16.3165 154.051 17.0157 153.982 17.7826C153.351 17.3429 152.464 18.1658 152.559 18.9286C152.654 19.6917 153.311 20.2465 153.941 20.687C154.572 21.1275 155.267 21.5882 155.516 22.3157C155.358 22.4842 155.195 22.552 155.025 22.5604C153.326 22.6443 151.93 23.9136 151.909 25.615C151.907 25.7727 151.906 25.9188 151.903 26.0492C151.889 26.8225 152.434 27.9412 152.776 28.6351C153.641 30.3945 154.577 30.8689 155.976 32.2431C154.809 32.9388 155.709 37.0384 160.229 36.9761C164.888 42.7928 168.636 46.4544 174.632 50.879C175.488 51.5104 176.603 52.1505 177.547 51.661C178.107 52.3553 179.095 52.5832 179.977 52.4567C180.86 52.3302 181.668 51.9061 182.456 51.4884C184.233 52.1795 186.427 51.5873 187.614 50.0956C189.196 50.0488 190.744 49.3007 191.764 48.0904C193.53 48.7095 195.7 47.421 196.001 45.5734C196.988 43.5769 197.643 41.4162 197.929 39.2072C199.068 39.7162 200.41 38.6622 200.682 37.4449C200.954 36.2277 200.494 34.9793 200.042 33.817C200.633 34.5518 201.951 34.0987 202.319 33.2304C202.686 32.362 202.396 31.3632 202.031 30.4935C201.496 29.2189 200.807 28.0093 199.982 26.9001C200.582 25.3497 200.01 22.6639 199.219 21.2019C196.03 15.3052 193.036 12.2079 183.463 12.1995Z" fill="#263238"/>
  <path d="M173.163 16.543C173.842 15.4628 175.234 15.0814 176.369 15.6655L189.081 20.0654C192.815 21.9877 192.315 27.8111 190.236 31.4604C187.926 35.5145 184.946 40.3737 182.579 42.976C177.817 48.2085 172.136 45.443 172.136 45.443C172.141 45.4349 169.323 49.6586 169.323 49.6586L166.09 54.5908C164.616 53.2212 155.673 43.6014 155.673 43.6014L173.163 16.543Z" fill="#FFBF9D"/>
  <path d="M178.557 36.0853C178.583 36.037 179.141 36.2793 180.021 36.7086C180.241 36.8222 180.463 36.9092 180.59 36.7918C180.736 36.6747 180.795 36.3964 180.853 36.0916C180.986 35.4665 181.126 34.8114 181.273 34.1245C181.892 31.3379 182.485 29.1013 182.596 29.1272C182.709 29.153 182.298 31.4327 181.678 34.2192C181.52 34.903 181.371 35.5553 181.226 36.179C181.151 36.4639 181.111 36.8173 180.803 37.0568C180.647 37.1742 180.422 37.1864 180.267 37.1354C180.108 37.0889 179.991 37.0155 179.885 36.9543C179.039 36.4621 178.53 36.1332 178.557 36.0853Z" fill="#263238"/>
  <path d="M172.135 45.4919C172.135 45.4919 168.755 43.737 166.398 38.8418C166.398 38.8418 164.484 43.8111 170.794 47.5013L172.135 45.4919Z" fill="#FF9A6C"/>
  <path d="M181.512 25.0138C181.288 25.1809 180.552 24.5488 179.531 24.0419C178.521 23.5148 177.577 23.291 177.58 23.0121C177.586 22.8813 177.854 22.7625 178.302 22.7527C178.746 22.7415 179.366 22.86 179.975 23.1697C180.584 23.4802 181.045 23.9112 181.297 24.2776C181.553 24.6453 181.614 24.932 181.512 25.0138Z" fill="#263238"/>
  <path d="M189.113 30.3085C188.851 30.3983 188.421 29.8439 187.758 29.3967C187.112 28.9266 186.444 28.7105 186.44 28.4333C186.444 28.3029 186.653 28.1781 187.014 28.1669C187.371 28.154 187.871 28.2802 188.321 28.5951C188.77 28.9108 189.059 29.3377 189.168 29.6775C189.281 30.0207 189.234 30.2602 189.113 30.3085Z" fill="#263238"/>
  <path d="M190.815 36.056C191.402 35.1303 191.775 34.0274 191.636 32.9405C191.56 32.3448 191.334 31.7701 191.318 31.1699C191.286 29.8729 192.215 28.7767 192.678 27.565C193.275 26.0034 193.055 24.1541 192.107 22.7764C191.319 21.6301 190.079 20.8125 189.465 19.5645C189.011 18.6419 188.94 17.5589 188.432 16.6647C187.442 14.9234 185.182 14.4438 183.187 14.2676C182.111 15.1754 182.12 16.6405 182.13 18.0487C182.141 19.4568 182.806 20.8464 183.896 21.7382C184.741 22.43 185.918 22.9757 186.085 24.0555C186.259 25.1913 185.162 26.1772 185.149 27.3262C185.132 28.9686 187.179 29.817 187.843 31.3192C188.355 32.4791 187.962 33.8106 187.74 35.059C187.518 36.3077 187.593 37.8315 188.655 38.5244C189.438 37.7574 190.228 36.9814 190.815 36.056Z" fill="#263238"/>
  <path d="M183.938 17.8452C181.383 15.9404 178.455 14.5371 175.369 13.7387C174.45 13.5006 173.451 13.3209 172.571 13.6782C171.797 13.9925 171.239 14.6735 170.758 15.3562C169.252 17.4946 168.232 20.7066 167.625 23.2505L169.128 26.7474C171.515 27.737 173.121 23.5406 174.297 21.705C176.171 22.1077 178.247 21.3239 179.387 19.783C181.092 19.877 182.824 19.1394 183.938 17.8452Z" fill="#263238"/>
  <path d="M169.642 25.9605C170.437 24.6901 169.118 23.3795 167.625 23.2523C166.805 23.1824 165.885 23.5498 165.029 24.8904C162.747 28.4659 166.807 30.0188 166.879 29.9206C166.923 29.859 168.711 27.448 169.642 25.9605Z" fill="#FFBF9D"/>
  <path d="M166.651 27.8668C166.643 27.8451 166.561 27.8706 166.425 27.8518C166.293 27.8332 166.095 27.7528 165.953 27.5644C165.664 27.1844 165.729 26.3821 166.123 25.7263C166.321 25.3952 166.587 25.1289 166.866 24.946C167.142 24.7541 167.428 24.6793 167.64 24.767C167.857 24.8439 167.919 25.0439 167.898 25.1722C167.882 25.3029 167.814 25.3596 167.829 25.3781C167.833 25.3935 167.944 25.3673 168.01 25.2009C168.04 25.1205 168.052 25.0093 168.012 24.8873C167.97 24.7628 167.867 24.6468 167.725 24.5765C167.438 24.4196 167.028 24.5146 166.721 24.7153C166.399 24.9076 166.092 25.2019 165.869 25.5742C165.432 26.3094 165.371 27.219 165.792 27.6979C166.002 27.9241 166.26 27.9822 166.422 27.9668C166.59 27.9489 166.66 27.8811 166.651 27.8668Z" fill="#FF9A6C"/>
  <path d="M165.228 29.0333C165.229 29.0344 165.214 29.0473 165.185 29.0718C165.152 29.0917 165.116 29.142 165.044 29.1693C164.914 29.25 164.677 29.2903 164.389 29.2385C164.099 29.1878 163.761 29.041 163.412 28.8026C163.235 28.6851 163.058 28.5404 162.886 28.3691C162.714 28.1978 162.543 27.9996 162.416 27.7535L162.472 27.7626C162.061 28.1765 161.388 28.4586 160.663 28.3527C159.946 28.2527 159.225 27.7014 158.97 26.8844L159.035 26.9162C158.824 26.9973 158.578 26.9876 158.368 26.8918C158.156 26.8019 157.977 26.6394 157.846 26.4439C157.715 26.2478 157.643 26.0024 157.661 25.7577C157.676 25.5141 157.762 25.2756 157.894 25.0662C158.161 24.6467 158.604 24.3405 159.095 24.1912C159.586 24.0336 160.111 23.9965 160.636 23.963L160.585 24.0469C160.418 23.6686 160.454 23.2184 160.627 22.8401C160.8 22.4587 161.09 22.1263 161.457 21.898C161.824 21.6725 162.247 21.5453 162.676 21.475C163.106 21.4044 163.545 21.3876 163.985 21.3736L163.924 21.447C163.852 21.0093 164.018 20.5507 164.304 20.2067C164.59 19.8589 164.986 19.5956 165.429 19.467C166.276 19.223 167.143 19.3736 167.947 19.5068L167.876 19.5463C168.234 18.6605 169.044 18.0117 169.934 17.8362C170.826 17.6603 171.756 17.9435 172.385 18.5193L172.289 18.5399C172.599 17.8264 173.276 17.3688 173.959 17.2041C174.648 17.0332 175.388 17.1472 175.924 17.5383L175.85 17.5506C176.305 16.922 177.045 16.635 177.71 16.6158C178.383 16.5924 179.018 16.8385 179.431 17.2552L179.368 17.2604C179.62 16.9339 179.957 16.728 180.283 16.5808C180.612 16.4361 180.944 16.3501 181.259 16.327C181.889 16.2592 182.432 16.4382 182.799 16.6679C182.845 16.6965 182.89 16.7249 182.934 16.7521C182.975 16.7832 183.011 16.8178 183.048 16.8486C183.119 16.914 183.194 16.9661 183.248 17.0307C183.351 17.1615 183.455 17.2597 183.509 17.36C183.565 17.453 183.609 17.5261 183.641 17.5803C183.67 17.6299 183.684 17.6554 183.682 17.6568C183.681 17.6579 183.663 17.6338 183.631 17.5862C183.596 17.5338 183.55 17.4632 183.49 17.3733C183.433 17.2758 183.328 17.1814 183.223 17.0549C183.169 16.9926 183.094 16.9426 183.023 16.8797C182.986 16.85 182.95 16.8164 182.909 16.7867C182.866 16.7609 182.821 16.7339 182.775 16.7063C182.411 16.4871 181.881 16.3193 181.265 16.3921C180.958 16.4179 180.634 16.505 180.313 16.649C179.996 16.7944 179.671 17.0003 179.436 17.309L179.407 17.3478L179.373 17.3143C178.974 16.9182 178.363 16.6847 177.714 16.7112C177.072 16.7332 176.364 17.0147 175.937 17.6114L175.906 17.6547L175.863 17.6236C175.353 17.2552 174.646 17.1475 173.987 17.3139C173.331 17.474 172.688 17.9148 172.399 18.5867L172.366 18.664L172.304 18.6074C171.703 18.0589 170.809 17.7886 169.958 17.9582C169.111 18.126 168.334 18.75 167.996 19.5935L167.976 19.6414L167.926 19.633C167.123 19.4995 166.273 19.3569 165.465 19.5907C165.049 19.7117 164.673 19.9616 164.405 20.2882C164.136 20.6119 163.986 21.0321 164.051 21.4281L164.062 21.4998L163.99 21.5019C163.12 21.5267 162.231 21.5729 161.523 22.0046C161.179 22.2182 160.902 22.5335 160.74 22.8904C160.577 23.2456 160.546 23.6567 160.696 23.9997L160.731 24.0783L160.645 24.0836C160.12 24.1154 159.605 24.1517 159.131 24.3024C158.658 24.4454 158.241 24.7334 157.989 25.1271C157.734 25.5123 157.679 26.0255 157.935 26.3873C158.164 26.7491 158.621 26.976 159 26.825L159.05 26.8051L159.065 26.8568C159.303 27.6346 159.993 28.1702 160.677 28.2695C161.37 28.3761 162.023 28.1094 162.424 27.7143L162.458 27.6804L162.48 27.7234C162.599 27.9601 162.764 28.1569 162.931 28.3265C163.099 28.4967 163.271 28.6414 163.443 28.7592C163.784 28.9987 164.114 29.1483 164.396 29.2032C164.677 29.2591 164.907 29.2266 165.036 29.1536C165.167 29.0854 165.223 29.0267 165.228 29.0333Z" fill="#455A64"/>
  <path d="M154.806 15.9343C154.806 15.9343 154.797 15.8301 154.826 15.6337C154.858 15.4389 154.932 15.147 155.135 14.823C155.335 14.5035 155.676 14.1423 156.195 13.949C156.703 13.756 157.384 13.7309 158.01 14.0563L157.951 14.0766C158.221 13.4711 158.759 12.908 159.485 12.6066C159.846 12.4525 160.252 12.3665 160.673 12.378C161.098 12.3832 161.51 12.5262 161.931 12.614C162.142 12.658 162.358 12.6877 162.574 12.6716C162.789 12.657 162.998 12.587 163.192 12.4755C163.583 12.2567 163.912 11.9033 164.361 11.6883C165.249 11.2684 166.438 11.4128 167.201 12.1616L167.1 12.177C167.554 11.3121 168.433 10.6262 169.459 10.4266C170.527 10.2197 171.645 10.5644 172.399 11.2607L172.301 11.2761C172.926 10.1966 174.194 9.63167 175.315 9.80402C176.444 9.97706 177.346 10.7937 177.687 11.7316L177.628 11.697C178.235 11.6009 178.826 11.6848 179.356 11.8316C179.886 11.9844 180.371 12.1875 180.792 12.4385C181.648 12.9191 182.277 13.5152 182.728 14.0466C183.175 14.5856 183.443 15.0726 183.574 15.4222C183.653 15.5917 183.675 15.7361 183.707 15.8266C183.733 15.9193 183.743 15.9679 183.743 15.9679C183.731 15.971 183.685 15.777 183.544 15.4347C183.404 15.0922 183.13 14.6143 182.681 14.0868C182.227 13.5666 181.599 12.9828 180.749 12.5147C180.332 12.2696 179.851 12.0732 179.33 11.9263C178.81 11.7851 178.231 11.7075 177.645 11.8033L177.601 11.8106L177.586 11.769C177.255 10.8695 176.38 10.084 175.298 9.92253C174.227 9.75892 173.005 10.3074 172.411 11.339L172.371 11.4079L172.313 11.3541C171.589 10.6857 170.508 10.3536 169.483 10.5535C168.499 10.7444 167.649 11.4065 167.213 12.2364L167.173 12.3123L167.111 12.2518C166.394 11.5432 165.255 11.4013 164.413 11.798C163.991 11.9969 163.661 12.3469 163.25 12.578C163.046 12.6947 162.815 12.7716 162.582 12.7863C162.35 12.8024 162.124 12.7695 161.908 12.7237C161.478 12.6318 161.075 12.4906 160.67 12.4843C160.266 12.4713 159.873 12.5514 159.524 12.6986C158.819 12.9859 158.294 13.5281 158.029 14.1109L158.01 14.1521L157.97 14.1312C157.373 13.8141 156.712 13.8302 156.218 14.0116C155.714 14.1927 155.377 14.5384 155.175 14.8481C154.97 15.1621 154.89 15.447 154.851 15.6382C154.813 15.8308 154.812 15.935 154.806 15.9343Z" fill="#455A64"/>
  <path d="M186.956 40.5946C186.959 40.6026 186.952 40.4492 187.146 40.3037C187.241 40.2345 187.382 40.18 187.553 40.1646C187.725 40.145 187.923 40.1905 188.131 40.2579C188.339 40.3219 188.568 40.4163 188.828 40.4212C189.087 40.4264 189.367 40.3293 189.613 40.1496C189.863 39.9727 190.078 39.7206 190.267 39.4266C190.46 39.1347 190.632 38.8026 190.864 38.4814C191.328 37.8256 192.081 37.3645 192.767 36.7681C193.107 36.4685 193.42 36.1063 193.629 35.6728C193.835 35.2446 193.91 34.7209 193.705 34.2577C193.511 33.7907 193.126 33.4145 192.796 32.9803C192.632 32.7622 192.478 32.5227 192.388 32.2494C192.293 31.9767 192.296 31.675 192.346 31.3929C192.451 30.8206 192.743 30.312 192.962 29.781C193.074 29.5163 193.168 29.2409 193.194 28.9584C193.225 28.6756 193.156 28.3917 193.009 28.1491C192.794 27.8243 192.452 27.6017 192.153 27.3328C192.003 27.1986 191.86 27.0469 191.76 26.8647C191.658 26.6837 191.606 26.4739 191.612 26.2701C191.618 25.8586 191.778 25.4926 191.886 25.1336C192.006 24.7767 192.05 24.4093 192.015 24.0478C191.95 23.3259 191.58 22.66 191.037 22.2527C190.496 21.8416 189.82 21.6612 189.199 21.7269L189.124 21.735L189.139 21.6608C189.389 20.4209 188.996 19.225 188.373 18.4279C188.058 18.0255 187.68 17.72 187.297 17.4998C186.915 17.2778 186.526 17.1411 186.165 17.0803C185.435 16.9583 184.854 17.1257 184.496 17.2774C184.312 17.3505 184.181 17.426 184.092 17.477C184.051 17.4994 184.018 17.5172 183.99 17.5323C183.967 17.5442 183.955 17.5498 183.954 17.5484C183.954 17.5473 183.964 17.5393 183.986 17.5249C184.012 17.5082 184.044 17.4879 184.084 17.4624C184.17 17.4061 184.299 17.3253 184.483 17.2463C184.84 17.0834 185.429 16.9016 186.176 17.0166C186.545 17.074 186.944 17.2093 187.337 17.4319C187.729 17.6529 188.119 17.9619 188.444 18.372C189.088 19.1837 189.499 20.4045 189.248 21.6829L189.188 21.6168C189.837 21.5455 190.542 21.7301 191.109 22.1583C191.679 22.5837 192.069 23.2808 192.139 24.0359C192.178 24.4117 192.13 24.806 192.007 25.171C191.896 25.536 191.744 25.8964 191.74 26.2711C191.723 26.6504 191.944 26.985 192.24 27.2374C192.529 27.4985 192.88 27.723 193.118 28.0792C193.282 28.3463 193.357 28.6651 193.323 28.9703C193.294 29.2755 193.195 29.5614 193.081 29.8306C192.857 30.3697 192.571 30.8741 192.471 31.416C192.423 31.6837 192.42 31.9599 192.508 32.2116C192.59 32.4647 192.735 32.6933 192.895 32.9066C193.215 33.3324 193.608 33.7148 193.815 34.2126C193.917 34.4587 193.965 34.7286 193.939 34.9883C193.917 35.2481 193.84 35.4959 193.733 35.7218C193.513 36.1731 193.188 36.5436 192.839 36.8485C192.138 37.4505 191.393 37.9011 190.939 38.5356C190.71 38.8474 190.535 39.1777 190.337 39.4721C190.143 39.7685 189.917 40.0286 189.656 40.209C189.398 40.3925 189.103 40.4925 188.828 40.4831C188.552 40.4733 188.322 40.3726 188.117 40.3058C187.911 40.2352 187.723 40.1884 187.557 40.2034C187.392 40.2142 187.256 40.2628 187.162 40.3258C186.971 40.4562 186.967 40.6033 186.956 40.5946Z" fill="#455A64"/>
  <path d="M197.462 40.0746C197.459 40.0743 197.463 40.0439 197.472 39.9848C197.484 39.9198 197.498 39.8334 197.517 39.724C197.56 39.4877 197.622 39.1524 197.701 38.7238C197.779 38.2896 197.896 37.7607 197.965 37.1399C198.03 36.5264 198.045 35.7845 197.706 35.077C197.537 34.7257 197.288 34.3942 197.07 34.0181C196.962 33.8297 196.861 33.6276 196.799 33.4049C196.735 33.1836 196.724 32.9389 196.773 32.704C196.868 32.2303 197.155 31.8227 197.291 31.3606C197.356 31.1305 197.377 30.8841 197.299 30.6527C197.229 30.4191 197.084 30.208 196.932 29.9986C196.781 29.7885 196.612 29.578 196.493 29.3274C196.367 29.0802 196.33 28.7817 196.375 28.5027C196.471 27.9368 196.808 27.4648 197.044 26.959C197.162 26.7066 197.263 26.4398 197.271 26.1644C197.284 25.8886 197.172 25.6194 196.985 25.4124C196.602 24.9922 196.003 24.7989 195.558 24.3567C195.337 24.1333 195.194 23.8337 195.15 23.5296C195.105 23.2247 195.125 22.9227 195.15 22.6301C195.175 22.3371 195.208 22.0487 195.201 21.7659C195.197 21.4838 195.145 21.2048 195.009 20.9692C194.736 20.4858 194.198 20.2519 193.704 20.0432C193.206 19.8338 192.684 19.6184 192.319 19.214C191.953 18.8179 191.746 18.3334 191.558 17.8779C191.369 17.4217 191.209 16.9651 190.954 16.5872C190.433 15.8297 189.685 15.3399 188.964 15.0497C188.236 14.7582 187.512 14.6932 186.894 14.7365C186.27 14.7816 185.758 14.9623 185.349 15.12C184.951 15.3042 184.648 15.4657 184.459 15.6007C184.365 15.6598 184.292 15.7066 184.236 15.7419C184.185 15.773 184.159 15.7884 184.157 15.7867C184.156 15.7849 184.18 15.766 184.228 15.7314C184.283 15.6933 184.354 15.643 184.445 15.579C184.63 15.4367 184.93 15.2668 185.33 15.0742C185.739 14.9075 186.256 14.7173 186.888 14.6649C187.516 14.6138 188.253 14.6732 188.998 14.9651C189.734 15.2563 190.501 15.7486 191.043 16.5281C191.311 16.9221 191.472 17.3808 191.663 17.8352C191.851 18.2883 192.057 18.7595 192.406 19.1339C192.751 19.5139 193.25 19.7212 193.752 19.9303C194.004 20.0372 194.263 20.1453 194.505 20.2966C194.747 20.4466 194.972 20.648 195.119 20.9077C195.269 21.1664 195.324 21.4698 195.329 21.7631C195.336 22.0582 195.303 22.3504 195.278 22.6416C195.254 22.9321 195.235 23.2251 195.278 23.5103C195.32 23.7952 195.448 24.0606 195.65 24.2675C196.063 24.6832 196.662 24.8751 197.082 25.3278C197.287 25.5547 197.415 25.862 197.399 26.1682C197.39 26.4741 197.28 26.7552 197.159 27.0139C196.914 27.5302 196.585 27.9976 196.497 28.5227C196.456 28.7817 196.487 29.0449 196.603 29.276C196.713 29.5102 196.876 29.7168 197.029 29.9294C197.181 30.1409 197.334 30.3625 197.41 30.6191C197.495 30.8743 197.471 31.1505 197.4 31.3927C197.252 31.879 196.967 32.281 196.877 32.7257C196.775 33.1704 196.946 33.6049 197.156 33.9692C197.368 34.3394 197.617 34.675 197.788 35.0378C198.133 35.7733 198.108 36.5305 198.037 37.1483C197.96 37.774 197.835 38.3008 197.75 38.7336C197.661 39.1601 197.591 39.494 197.542 39.7292C197.518 39.8376 197.499 39.9229 197.485 39.9876C197.472 40.0456 197.464 40.0753 197.462 40.0746Z" fill="#455A64"/>
  <path d="M196.404 33.8557C196.405 33.8536 196.429 33.8651 196.475 33.8903C196.516 33.9211 196.582 33.9697 196.629 34.0627C196.725 34.2434 196.736 34.5828 196.531 34.9177C196.425 35.0845 196.262 35.2268 196.086 35.3778C195.912 35.5288 195.713 35.6868 195.568 35.9081C195.424 36.1294 195.367 36.415 195.352 36.7167C195.335 37.0198 195.358 37.3456 195.317 37.691C195.286 38.0322 195.114 38.4125 194.779 38.617C194.458 38.8299 194.069 38.9212 193.75 39.1431C193.427 39.363 193.246 39.7465 193.161 40.1555C193.068 40.566 193.039 41.0078 192.918 41.4511C192.859 41.6724 192.767 41.894 192.625 42.088C192.484 42.2824 192.295 42.4418 192.085 42.5621C191.66 42.8008 191.182 42.9092 190.724 43.069C190.27 43.2235 189.813 43.4598 189.576 43.894C189.334 44.3222 189.295 44.8462 189.154 45.3521C189.084 45.6059 188.985 45.8586 188.826 46.0754C188.665 46.2904 188.45 46.4575 188.219 46.576C187.752 46.8126 187.25 46.8962 186.777 47.0119C186.303 47.1248 185.847 47.2688 185.475 47.5499C185.095 47.817 184.76 48.147 184.347 48.3613C184.141 48.4672 183.914 48.5382 183.684 48.5438C183.453 48.5515 183.234 48.4913 183.03 48.427C182.825 48.362 182.629 48.29 182.431 48.2526C182.233 48.2194 182.034 48.2131 181.839 48.2358C181.45 48.2858 181.088 48.4228 180.746 48.564C180.404 48.7056 180.076 48.8514 179.749 48.958C179.092 49.1793 178.434 49.1475 177.917 48.9738C177.396 48.8053 176.995 48.5357 176.718 48.2707C176.44 48.0051 176.273 47.7541 176.179 47.5761C176.086 47.3975 176.053 47.2968 176.053 47.2968C176.074 47.28 176.194 47.7149 176.752 48.234C177.029 48.4892 177.427 48.7472 177.938 48.9052C178.447 49.0685 179.082 49.0926 179.72 48.8717C180.04 48.7644 180.365 48.6175 180.708 48.4728C181.051 48.3288 181.419 48.1851 181.826 48.1306C182.03 48.105 182.241 48.1106 182.452 48.1449C182.661 48.1837 182.862 48.2564 183.064 48.3193C183.265 48.3819 183.472 48.4368 183.681 48.4281C183.891 48.4221 184.098 48.3571 184.292 48.2564C184.683 48.0537 185.015 47.7264 185.404 47.4503C185.789 47.1573 186.272 47.0032 186.748 46.8899C187.224 46.7731 187.719 46.6875 188.16 46.4631C188.378 46.3508 188.575 46.1967 188.723 45.9988C188.868 45.8003 188.962 45.5639 189.03 45.3185C189.168 44.8281 189.204 44.2956 189.465 43.8314C189.592 43.6007 189.784 43.4098 189.999 43.2693C190.214 43.1284 190.45 43.0316 190.683 42.9501C191.149 42.7889 191.621 42.6813 192.023 42.4554C192.222 42.3422 192.397 42.1954 192.527 42.0167C192.658 41.8388 192.746 41.6322 192.803 41.4189C192.922 40.9924 192.953 40.5516 193.05 40.13C193.138 39.7119 193.335 39.2917 193.688 39.0551C194.033 38.8208 194.422 38.7334 194.723 38.5335C195.035 38.3443 195.19 38.0088 195.226 37.6787C195.269 37.347 195.249 37.0212 195.269 36.7122C195.288 36.4045 195.35 36.1032 195.507 35.869C195.664 35.6365 195.87 35.4792 196.046 35.3313C196.223 35.1841 196.386 35.0457 196.488 34.8908C196.69 34.5748 196.689 34.2483 196.604 34.0742C196.515 33.8956 196.395 33.8645 196.404 33.8557Z" fill="#455A64"/>
  <path d="M175.258 35.468C175.519 35.3072 175.862 35.3872 176.033 35.6414C176.56 36.4227 177.086 37.2036 177.613 37.985L177.789 38.2454C177.413 38.5499 176.852 38.9792 176.403 39.1606C175.954 39.3417 175.422 39.3798 174.998 39.1452C174.679 38.969 174.392 38.602 174.255 38.265C174.016 37.6745 173.817 37.0694 174.088 36.4926C174.279 36.0829 174.873 35.705 175.258 35.468Z" fill="#FF9A6C"/>
  <path d="M163.605 27.0292C163.605 27.0292 163.353 26.9404 162.877 26.9547C162.41 26.9694 161.689 27.1372 161.053 27.7238C160.734 28.0094 160.451 28.3978 160.266 28.8697C160.09 29.3423 160.01 29.8898 160.077 30.4537C160.138 31.0165 160.342 31.5968 160.704 32.1005C161.061 32.6064 161.594 33.0151 162.21 33.2402C162.826 33.4671 163.489 33.5164 164.096 33.3884C164.704 33.2647 165.245 32.9549 165.648 32.555C166.459 31.7443 166.734 30.6522 166.605 29.809C166.536 29.3804 166.362 29.0284 166.188 28.7404C166.012 28.452 165.815 28.2328 165.638 28.0744C165.46 27.9167 165.3 27.8203 165.185 27.7706C165.07 27.7217 165.006 27.7077 165.005 27.7115C164.995 27.7287 165.26 27.7951 165.595 28.1209C165.761 28.2824 165.946 28.5016 166.11 28.7872C166.272 29.0714 166.434 29.4196 166.491 29.8248C166.601 30.6344 166.324 31.6797 165.543 32.448C165.155 32.8266 164.643 33.1161 164.064 33.2321C163.487 33.3517 162.853 33.3038 162.267 33.0874C161.679 32.8724 161.175 32.4872 160.833 32.0076C160.487 31.5297 160.288 30.9752 160.226 30.4362C160.158 29.8961 160.23 29.371 160.392 28.9169C160.563 28.4656 160.829 28.0884 161.131 27.808C161.734 27.2326 162.426 27.0515 162.881 27.018C163.345 26.9848 163.602 27.0491 163.605 27.0292Z" fill="#E0E0E0"/>
  <path d="M177.761 29.706C177.508 30.1209 176.948 30.2489 176.51 29.9926C176.073 29.7367 175.922 29.1938 176.175 28.7785C176.428 28.3636 176.988 28.2353 177.425 28.4908C177.864 28.747 178.014 29.291 177.761 29.706Z" fill="#263238"/>
  <path d="M185.066 34.8974C184.813 35.3123 184.253 35.4403 183.815 35.184C183.378 34.9285 183.227 34.3852 183.48 33.9699C183.733 33.555 184.293 33.4267 184.73 33.6822C185.169 33.9385 185.319 34.4824 185.066 34.8974Z" fill="#263238"/>
  <path d="M187.156 32.8689C187.003 32.9294 186.714 32.131 185.923 31.6835C185.141 31.2238 184.3 31.3703 184.277 31.2081C184.263 31.134 184.467 30.9843 184.838 30.9123C185.204 30.8393 185.742 30.8718 186.233 31.1542C186.722 31.4374 187.018 31.8852 187.136 32.2376C187.258 32.5945 187.228 32.8445 187.156 32.8689Z" fill="#263238"/>
  <path d="M179.735 28.3545C179.551 28.3968 179.277 27.4564 178.391 26.8286C177.516 26.1874 176.522 26.2137 176.508 26.0287C176.497 25.9434 176.746 25.8088 177.186 25.7896C177.62 25.7672 178.245 25.8913 178.794 26.2867C179.343 26.6832 179.652 27.232 179.762 27.6452C179.875 28.0637 179.821 28.3384 179.735 28.3545Z" fill="#263238"/>
  <path d="M175.68 39.2474C175.682 39.2593 175.552 39.2967 175.318 39.2516C175.086 39.2097 174.763 39.0499 174.472 38.7409C174.187 38.4308 173.922 37.9851 173.825 37.4229C173.774 37.144 173.801 36.8199 173.925 36.5277C174.049 36.2337 174.261 35.9778 174.507 35.7691C174.754 35.5576 175.022 35.3978 175.288 35.2601C175.425 35.1926 175.611 35.1185 175.811 35.1937C176.004 35.2765 176.082 35.4321 176.154 35.5376C176.423 35.9666 176.676 36.3686 176.909 36.7402C177.332 37.4296 177.577 37.8669 177.544 37.8886C177.511 37.9103 177.206 37.5124 176.74 36.8517C176.49 36.4903 176.221 36.0998 175.933 35.6827C175.781 35.4331 175.669 35.3716 175.415 35.5104C175.167 35.6425 174.915 35.7963 174.693 35.9869C174.235 36.3588 173.999 36.8891 174.086 37.3855C174.157 37.883 174.383 38.3098 174.624 38.607C174.871 38.9045 175.144 39.0737 175.349 39.1443C175.554 39.2177 175.681 39.2202 175.68 39.2474Z" fill="#263238"/>
  <path d="M207.346 25.6586C207.309 25.6712 207.263 25.1674 206.801 24.4389C206.565 24.083 206.223 23.6723 205.725 23.3276C205.233 22.9801 204.58 22.6956 203.827 22.6445L203.718 22.6372L203.729 22.5274C203.81 21.716 203.544 20.7826 202.923 20.0216C202.315 19.2654 201.334 18.6607 200.232 18.6586L200.095 18.6582L200.094 18.5219C200.087 17.1707 199.516 15.7042 198.446 14.6216C197.627 13.7854 196.555 13.2746 195.482 13.0918C194.407 12.9058 193.334 13.0359 192.43 13.3974L192.366 13.4229L192.309 13.3848C191.234 12.6685 190.09 12.2486 189.043 12.0693C187.997 11.8721 187.052 11.9018 186.288 11.9966C184.752 12.2042 183.943 12.6573 183.926 12.6062C183.923 12.5996 183.972 12.5713 184.07 12.5227C184.169 12.4766 184.312 12.3989 184.509 12.322C184.9 12.1644 185.491 11.9669 186.267 11.8431C187.041 11.7246 188.005 11.6732 189.081 11.8574C190.155 12.0238 191.337 12.4398 192.454 13.1701L192.333 13.1575C193.279 12.7699 194.402 12.6262 195.529 12.8163C196.654 13.002 197.788 13.5386 198.65 14.4195C199.775 15.5581 200.37 17.0966 200.37 18.5198L200.232 18.3834C201.44 18.3939 202.48 19.0564 203.117 19.8657C203.769 20.6809 204.041 21.6821 203.939 22.5508L203.841 22.4337C204.642 22.5015 205.32 22.8169 205.823 23.1913C206.333 23.5636 206.674 24.0005 206.901 24.377C207.126 24.7581 207.233 25.087 207.292 25.3101C207.341 25.5363 207.355 25.6569 207.346 25.6586Z" fill="#263238"/>
  <path d="M184.954 7.63859C184.954 7.63859 184.552 7.60608 183.947 7.22468C183.363 6.85483 182.545 6.07421 182.275 4.78425C182.148 4.1494 182.198 3.40235 182.51 2.69584C182.816 1.99318 183.357 1.31814 184.115 0.875214C184.869 0.42705 185.851 0.273933 186.783 0.505706C187.713 0.727341 188.614 1.30625 189.159 2.19314L189.001 2.12917C189.586 1.97815 190.25 2.05296 190.826 2.32668C191.305 2.54902 191.714 2.90384 191.999 3.33767C192.28 3.7764 192.412 4.29658 192.393 4.79648C192.358 5.79734 191.798 6.72618 190.976 7.16805L190.923 6.91705C191.732 6.98801 192.38 7.53371 192.716 8.15912C193.069 8.78976 193.1 9.54137 192.872 10.142C192.421 11.37 191.303 12.0084 190.405 12.115C189.485 12.2387 188.766 11.9993 188.322 11.8049C188.097 11.706 187.935 11.6074 187.827 11.5385C187.722 11.4665 187.67 11.426 187.674 11.4197C187.685 11.4004 187.904 11.5518 188.356 11.7242C188.801 11.8902 189.508 12.094 190.379 11.9528C191.229 11.8315 192.262 11.2029 192.659 10.0685C192.858 9.51305 192.822 8.84954 192.498 8.27937C192.188 7.7141 191.598 7.23797 190.902 7.18413L190.451 7.14882L190.849 6.93278C191.575 6.53845 192.085 5.68967 192.111 4.78809C192.127 4.33783 192.008 3.88162 191.76 3.49254C191.505 3.108 191.137 2.78673 190.703 2.58642C190.183 2.33892 189.588 2.27319 189.072 2.40534L188.97 2.43156L188.915 2.34101C188.418 1.52789 187.583 0.982886 186.718 0.772088C185.849 0.55255 184.947 0.686788 184.242 1.09545C183.532 1.50062 183.014 2.12987 182.717 2.78708C182.414 3.44884 182.356 4.14591 182.463 4.74859C182.693 5.97493 183.454 6.75275 184.005 7.13764C184.574 7.53511 184.966 7.60783 184.954 7.63859Z" fill="#263238"/>
  <path d="M162.186 4.76603C162.178 4.76393 162.187 4.70345 162.213 4.58809C162.237 4.47203 162.287 4.30388 162.37 4.09204C162.538 3.67289 162.857 3.06636 163.473 2.48745C164.079 1.91658 165.01 1.36844 166.173 1.28034C167.318 1.18596 168.67 1.54043 169.705 2.49234L169.546 2.47172C170.641 1.87533 172.059 1.64496 173.432 1.96168C174.452 2.1952 175.358 2.73705 176.042 3.42433C176.726 4.11441 177.2 4.94397 177.441 5.77982L177.333 5.68788C178.47 5.84729 179.455 6.30594 180.196 6.87122C180.951 7.4253 181.472 8.07448 181.827 8.6436C182.18 9.21796 182.365 9.71996 182.464 10.0671C182.556 10.4167 182.582 10.609 182.571 10.6111C182.52 10.6299 182.419 9.83393 181.696 8.7275C181.331 8.18425 180.809 7.56689 180.069 7.04531C179.342 6.51185 178.387 6.0864 177.301 5.94517L177.217 5.93433L177.192 5.85323C176.954 5.06178 176.497 4.27591 175.844 3.62289C175.189 2.97232 174.333 2.46298 173.367 2.24169C172.066 1.9414 170.716 2.15605 169.676 2.71398L169.589 2.76047L169.517 2.69336C168.555 1.79493 167.277 1.44115 166.19 1.51491C165.087 1.58098 164.19 2.08124 163.589 2.6154C162.979 3.1562 162.646 3.73092 162.455 4.13014C162.267 4.53321 162.207 4.77197 162.186 4.76603Z" fill="#263238"/>
  <path d="M140.754 31.0172C140.754 31.0172 141.13 30.346 144.041 30.7257C146.952 31.1053 158.489 39.0968 158.489 39.0968C158.489 39.0968 156.39 47.349 162.737 48.9232C167.357 50.0691 169.81 48.7795 169.81 48.7795C169.81 48.7795 177.546 58.4004 178.178 62.3238C178.178 62.3238 140.896 88.4093 146.947 85.5728L140.754 85.643L140.754 31.0172Z" fill="#436CD5"/>
  <path d="M177.573 60.5508C177.674 60.8294 179.12 62.548 177.689 70.2101C176.389 77.1706 170.687 84.1962 170.687 84.1962L159.351 73.9831L177.573 60.5508Z" fill="#436CD5"/>
  <path d="M171.655 66.0121C171.659 66.0169 171.599 66.0746 171.48 66.1802C171.347 66.2966 171.174 66.4476 170.958 66.6357C170.498 67.0241 169.826 67.5789 168.985 68.2494C167.304 69.5935 164.954 71.4145 162.341 73.4012C159.726 75.3879 157.345 77.1669 155.614 78.445C154.759 79.0707 154.06 79.5815 153.557 79.9492C153.324 80.1146 153.136 80.2478 152.992 80.3502C152.862 80.44 152.791 80.4848 152.788 80.4799C152.784 80.475 152.847 80.4201 152.97 80.3208C153.109 80.2114 153.29 80.0695 153.515 79.8926C154.009 79.5133 154.696 78.9872 155.537 78.3422C157.265 77.0295 159.624 75.2372 162.231 73.2565C164.844 71.2705 167.205 69.4659 168.905 68.1487C169.741 67.4967 170.422 66.9647 170.913 66.5812C171.138 66.4039 171.318 66.2617 171.457 66.1522C171.583 66.0558 171.651 66.0072 171.655 66.0121Z" fill="#263238"/>
  <path d="M152.787 0.09375H70.2131V114.867H152.787V0.09375Z" fill="white"/>
  <path d="M152.787 0.09375H70.2131V41.6364H152.787V0.09375Z" fill="#436CD5"/>
  <path d="M138.49 51.794C138.49 51.8444 127.137 51.8849 113.137 51.8849C99.1308 51.8849 87.7809 51.844 87.7809 51.794C87.7809 51.7437 99.1308 51.7031 113.137 51.7031C127.137 51.7028 138.49 51.7437 138.49 51.794Z" fill="#263238"/>
  <path d="M138.49 62.9913C138.49 63.0416 127.138 63.0822 113.137 63.0822C99.1312 63.0822 87.7813 63.0413 87.7813 62.9913C87.7813 62.9413 99.1312 62.9004 113.137 62.9004C127.138 62.9 138.49 62.9409 138.49 62.9913Z" fill="#263238"/>
  <path d="M138.49 74.1886C138.49 74.2389 127.137 74.2794 113.137 74.2794C99.131 74.2794 87.7811 74.2385 87.7811 74.1886C87.7811 74.1386 99.131 74.0977 113.137 74.0977C127.137 74.0973 138.49 74.1382 138.49 74.1886Z" fill="#263238"/>
  <path d="M138.281 105.669H88.6805C83.8031 105.669 79.8494 101.716 79.8494 96.8382V95.9132C79.8494 91.0358 83.8031 87.082 88.6805 87.082H138.281C143.159 87.082 147.113 91.0358 147.113 95.9132V96.8382C147.113 101.715 143.159 105.669 138.281 105.669Z" fill="#436CD5"/>
  <path d="M82.6226 53.6869C82.4995 53.6869 82.3758 53.6439 82.2765 53.5561L80.8638 52.3127C80.6464 52.1214 80.6251 51.79 80.8166 51.5726C81.0079 51.3555 81.34 51.3342 81.5567 51.5254L82.5817 52.4273L84.705 50.0827C84.8994 49.868 85.2312 49.8513 85.4458 50.046C85.6605 50.2403 85.6769 50.5721 85.4825 50.7867L83.012 53.5145C82.9078 53.6288 82.7656 53.6869 82.6226 53.6869Z" fill="#436CD5"/>
  <path d="M82.6224 64.8783C82.4993 64.8783 82.3756 64.8353 82.2763 64.7475L80.8637 63.5041C80.6462 63.3128 80.6249 62.9814 80.8165 62.764C81.0077 62.5469 81.3398 62.5256 81.5565 62.7168L82.5815 63.6187L84.7049 61.2741C84.8992 61.0594 85.231 61.0427 85.4456 61.2374C85.6603 61.4317 85.6767 61.7631 85.4823 61.9778L83.0118 64.7056C82.9077 64.8203 82.7654 64.8783 82.6224 64.8783Z" fill="#436CD5"/>
  <path d="M82.6226 76.0638C82.4995 76.0638 82.3758 76.0208 82.2765 75.933L80.8638 74.6899C80.6464 74.4987 80.6251 74.1673 80.8166 73.9498C81.0079 73.7328 81.34 73.7114 81.5567 73.9026L82.5817 74.8042L84.705 72.4596C84.8994 72.2449 85.2312 72.2282 85.4458 72.4232C85.6605 72.6176 85.6769 72.949 85.4825 73.1636L83.012 75.8914C82.9078 76.0057 82.7656 76.0638 82.6226 76.0638Z" fill="#436CD5"/>
  <path d="M117.062 12.5625L118.463 15.4008L121.595 15.8559L119.329 18.0653L119.864 21.185L117.062 19.7118L114.26 21.185L114.796 18.0653L112.529 15.8559L115.661 15.4008L117.062 12.5625Z" fill="white"/>
  <path d="M111.62 12.5684L113.47 16.3183L117.609 16.92L114.614 19.839L115.321 23.9606L111.62 22.0148L107.918 23.9606L108.625 19.839L105.63 16.92L109.769 16.3183L111.62 12.5684Z" fill="white"/>
  <path d="M115.771 24.5787L111.62 22.3959L107.468 24.5787L108.261 19.9555L104.902 16.6813L109.544 16.0066L111.62 11.8008L113.696 16.0066L118.337 16.6813L114.978 19.9551L115.771 24.5787ZM106.358 17.155L108.989 19.7188L108.369 23.3395L111.62 21.63L114.871 23.3395L114.251 19.7192L116.881 17.155L113.246 16.6268L111.62 13.333L109.994 16.6268L106.358 17.155Z" fill="#436CD5"/>
  <path d="M152.788 114.864C152.787 114.132 152.754 67.948 152.705 0.0912416L152.787 0.173743C127.87 0.17619 99.8055 0.178985 70.2224 0.182131H70.213L70.3038 0.0912416C70.2976 43.035 70.2916 82.7703 70.2867 114.864L70.2126 114.79C120.323 114.835 152.178 114.864 152.788 114.864C152.179 114.865 120.323 114.893 70.2133 114.938H70.1392V114.864C70.1343 82.77 70.1284 43.0347 70.1221 0.0908922V0H70.213H70.2224C99.8055 0.00314624 127.87 0.00594363 152.787 0.00839071H152.87V0.0908922C152.821 67.948 152.788 114.132 152.788 114.864Z" fill="#263238"/>
  <path d="M112.38 69.133C112.38 69.133 111.155 67.2952 113.606 67.1931C116.056 67.091 128.103 69.133 132.187 71.1749L135.76 73.4209L131.88 81.0782C131.88 81.0782 124.019 81.0782 122.998 81.0782C121.978 81.0782 119.119 79.3425 121.773 78.1176C121.773 78.1176 119.119 76.2798 121.569 74.7483C121.569 74.7483 119.629 73.3189 121.671 71.3794L112.38 69.133Z" fill="#FFBF9D"/>
  <path d="M132.905 71.9355L153.185 82.5559L160.793 75.2765L169.857 83.4428C169.857 83.4428 160.867 93.9939 155.653 94.9126C150.439 95.8316 130.172 79.5323 130.172 79.5323L132.905 71.9355Z" fill="#FFBF9D"/>
  <path d="M154.175 39.2856C154.113 39.3241 154.05 39.3605 153.986 39.3944C153.694 39.5485 153.377 39.6531 153.054 39.7205C152.906 39.7516 152.737 39.752 152.595 39.8051C152.499 39.8411 152.428 39.9184 152.341 39.9698C151.785 40.2956 151.08 40.3347 150.455 40.4001C149.751 40.4739 149.008 40.5847 148.459 41.0332C147.911 41.4817 147.672 42.3829 148.151 42.9052C147.701 42.8773 147.296 43.2821 147.242 43.7299C147.189 44.1777 147.434 44.6252 147.79 44.9017C148.146 45.1779 148.598 45.3037 149.046 45.3547C148.518 45.3956 148.139 45.9735 148.204 46.4993C148.269 47.0247 148.683 47.4585 149.167 47.6746C149.65 47.8906 150.195 47.9221 150.724 47.9116C151.254 47.9011 152.247 47.8871 152.772 47.9542C152.772 47.9542 152.757 48.6272 152.769 48.9313C152.786 49.3442 152.772 49.0205 152.772 49.0205C153.019 49.212 153.42 49.3264 153.952 49.5008C154.874 49.8025 155.465 50.0475 156.293 50.2611C156.914 50.4212 157.522 50.4968 157.854 50.0811C158.655 49.0806 156.549 47.627 156.549 47.627C157.167 47.296 157.001 45.2943 156.081 45.0268C156.537 44.8042 156.822 44.8262 157.091 44.3948C157.359 43.9634 157.451 43.4051 157.252 42.9381C157.053 42.4707 156.53 42.1382 156.031 42.2344C156.634 41.7355 156.872 40.8399 156.596 40.1075C156.43 39.667 156.085 39.3049 155.668 39.0916C155.458 38.9843 155.233 38.9182 154.999 38.891C154.915 38.8812 154.816 38.8588 154.733 38.8798C154.692 38.8903 154.658 38.9116 154.624 38.9361C154.47 39.0472 154.338 39.1832 154.175 39.2856Z" fill="#FFBF9D"/>
  <path d="M155.157 37.0123C155.113 36.5775 154.959 36.1185 154.597 35.8741C154.167 35.5843 153.399 35.6189 152.892 35.728C152.861 36.3432 152.881 36.6565 152.85 37.2721C152.843 37.4018 152.89 37.5028 152.83 37.6182C152.671 37.9216 152.003 37.9674 151.698 38.1226C151.169 38.3918 150.995 39.1413 151.275 39.665C151.555 40.1886 152.19 40.4638 152.782 40.411C153.373 40.3585 153.913 40.0208 154.312 39.5807C154.935 38.8931 155.25 37.9359 155.157 37.0123Z" fill="#FFBF9D"/>
  <path d="M156.205 42.2288C156.209 42.2787 154.41 42.4731 152.186 42.6629C149.962 42.8528 148.156 42.9657 148.152 42.9157C148.148 42.8657 149.947 42.6713 152.171 42.4815C154.394 42.2917 156.201 42.1784 156.205 42.2288Z" fill="#FF9A6C"/>
  <path d="M156.203 45.0196C156.207 45.043 155.806 45.1318 155.149 45.23C154.494 45.3286 153.581 45.43 152.569 45.4814C151.557 45.5317 150.64 45.5223 149.977 45.4901C149.314 45.458 148.906 45.4097 148.908 45.3863C148.909 45.3597 149.319 45.3625 149.98 45.3615C150.641 45.3608 151.554 45.3499 152.56 45.2996C153.566 45.2486 154.475 45.1678 155.133 45.1024C155.792 45.0371 156.199 44.993 156.203 45.0196Z" fill="#FF9A6C"/>
  <path d="M156.203 47.7796C156.206 47.803 155.872 47.8642 155.326 47.9187C154.781 47.974 154.024 48.0156 153.189 48.0281C152.354 48.0404 151.599 48.032 151.053 48.0239C150.506 48.0149 150.168 48.0026 150.167 47.9768C150.166 47.9523 150.504 47.9191 151.051 47.8949C151.598 47.8705 152.353 47.8582 153.186 47.846C154.019 47.8334 154.772 47.8124 155.317 47.7904C155.863 47.7687 156.201 47.753 156.203 47.7796Z" fill="#FF9A6C"/>
  <path d="M154.995 37.922C155.012 37.9157 155.084 38.1915 154.939 38.6051C154.804 39.0148 154.404 39.5129 153.821 39.8139C153.534 39.9691 153.244 40.0765 152.979 40.1607C152.714 40.2408 152.475 40.318 152.253 40.3341C152.032 40.3519 151.851 40.2897 151.751 40.2187C151.648 40.1474 151.619 40.081 151.627 40.0754C151.639 40.053 151.836 40.2715 152.239 40.2062C152.433 40.1775 152.667 40.0897 152.925 40.0016C153.182 39.9104 153.461 39.8017 153.733 39.6538C154.287 39.3665 154.661 38.9274 154.819 38.5568C154.984 38.187 154.963 37.9213 154.995 37.922Z" fill="#FF9A6C"/>
</svg>