<svg width="120" height="25" viewBox="0 0 120 25" fill="none" xmlns="http://www.w3.org/2000/svg">
<g id="Frame 2353 1" clip-path="url(#clip0_215_4374)">
<g id="Mask group">
<mask id="mask0_215_4374" style="mask-type:luminance" maskUnits="userSpaceOnUse" x="0" y="0" width="21" height="21">
<g id="Group">
<path id="Vector" d="M20.7612 10.3806C20.7612 4.64757 16.1137 0 10.3806 0C4.64757 0 0 4.64757 0 10.3806C0 16.1137 4.64757 20.7612 10.3806 20.7612C16.1137 20.7612 20.7612 16.1137 20.7612 10.3806Z" fill="white"/>
</g>
</mask>
<g mask="url(#mask0_215_4374)">
<g id="Group_2">
<path id="Vector_2" d="M20.7612 10.3806C20.7612 4.64757 16.1137 0 10.3806 0C4.64757 0 0 4.64757 0 10.3806C0 16.1137 4.64757 20.7612 10.3806 20.7612C16.1137 20.7612 20.7612 16.1137 20.7612 10.3806Z" fill="#072A85"/>
<g id="Mask group_2">
<mask id="mask1_215_4374" style="mask-type:luminance" maskUnits="userSpaceOnUse" x="0" y="0" width="21" height="21">
<g id="Group_3">
<path id="Vector_3" d="M20.7612 0H0V20.7612H20.7612V0Z" fill="white"/>
</g>
</mask>
<g mask="url(#mask1_215_4374)">
<g id="Group_4">
<path id="Vector_4" d="M20.7612 10.3806C20.7612 4.64757 16.1137 0 10.3806 0C4.64757 0 0 4.64757 0 10.3806C0 16.1137 4.64757 20.7612 10.3806 20.7612C16.1137 20.7612 20.7612 16.1137 20.7612 10.3806Z" fill="#072A85"/>
<path id="Vector_5" d="M13.117 7.22412H6.95172C6.61017 7.22412 6.33492 7.47901 6.33492 7.7925V11.9673C6.33492 12.2808 6.61017 12.5357 6.95172 12.5357H13.1145C13.4561 12.5357 13.7313 12.2808 13.7313 11.9673V7.7925C13.7338 7.47901 13.4586 7.22412 13.117 7.22412ZM13.1756 11.8959C13.1756 11.9342 13.14 11.9673 13.0992 11.9673H6.96955C6.92624 11.9673 6.89311 11.9342 6.89311 11.8959V9.87994H13.1756V11.8959ZM13.1756 8.36088H6.89311V7.86386C6.89311 7.82564 6.92877 7.7925 6.96955 7.7925H13.0967C13.14 7.7925 13.1732 7.82564 13.1732 7.86386V8.36088H13.1756ZM7.42574 10.9886H8.71538V11.4933H7.42574V10.9886ZM9.21749 10.9886H11.0832V11.4933H9.21749V10.9886ZM16.2859 11.9305L13.7734 14.3129C13.8367 14.466 13.8656 14.6532 13.8463 14.8279C13.8297 15.1916 13.6806 15.5381 13.4256 15.7977C13.1646 16.0471 12.812 16.1874 12.4423 16.1607L8.99842 16.0446C8.83563 16.0455 8.73201 15.9162 8.73706 15.7634C8.74214 15.6107 8.86547 15.4969 9.0081 15.508L12.4621 15.6182C12.9143 15.6233 13.2944 15.2763 13.3156 14.8282C13.3368 14.3801 12.9737 13.9958 12.5256 13.9746L8.22965 13.8446C7.52439 13.8256 6.78008 13.925 6.38194 14.5413L3.08176 19.4691L5.9318 20.7614L7.45129 18.0337C7.70217 17.7902 8.0608 17.6601 8.43457 17.6706L11.4245 17.7555C12.1559 17.7727 12.8594 17.466 13.3351 16.9809L17.4193 13.112C17.7451 12.8108 17.7767 12.2885 17.4475 11.9385C17.132 11.6348 16.6216 11.6233 16.2859 11.9305Z" fill="white"/>
<path id="Vector_6" d="M4.44907 5.93169C4.44907 5.11268 5.11302 4.44873 5.93201 4.44873H13.3467C14.1658 4.44873 14.8297 5.11268 14.8297 5.93169V11.8635C14.8297 12.6825 14.1658 13.3464 13.3467 13.3464H5.93201C5.11302 13.3464 4.44907 12.6825 4.44907 11.8635V5.93169Z" fill="#072A85"/>
<path id="Vector_7" d="M13.7141 9.2043C13.6955 9.2043 13.677 9.2043 13.677 9.2043C13.3797 9.16716 13.1383 9.09285 12.9154 8.92566C12.8968 8.9071 12.8968 8.9071 12.8782 8.9071C12.7668 8.81422 12.6739 8.86994 12.6181 8.88852L12.5996 8.9071C12.3209 9.11141 12.0052 9.22288 11.6336 9.22288C11.2436 9.22288 10.9278 9.11141 10.6306 8.88852C10.5191 8.81422 10.4448 8.88852 10.4448 8.88852C10.1476 9.12999 9.81326 9.24144 9.42317 9.24144C9.05165 9.24144 8.71729 9.12999 8.43866 8.9071C8.42009 8.88852 8.40151 8.88852 8.40151 8.86994C8.30863 8.79563 8.21576 8.86994 8.21576 8.86994C7.93713 9.09285 7.62133 9.2043 7.26841 9.22288C7.26841 9.22288 7.15696 9.22288 7.15696 9.35291V11.582C7.15696 11.7677 7.15696 11.9721 7.15696 12.1207C7.15696 12.1764 7.1941 12.3064 7.36129 12.3436H10.7978C10.9835 12.3064 11.0021 12.1764 11.0021 12.1207C11.0021 11.9721 11.0021 11.7863 11.0021 11.582C11.0021 11.099 11.0021 10.6346 11.0021 10.1517C11.0207 10.0959 11.0393 10.0402 11.1878 10.0402C11.708 10.0402 12.2281 10.0402 12.7482 10.0402C12.7853 10.0402 12.8039 10.0402 12.8411 10.0402C12.8968 10.0588 12.9525 10.0959 12.9525 10.226C12.9525 10.6903 12.9525 11.1362 12.9525 11.582C12.9525 11.7677 12.9525 11.9349 12.9525 12.0835C12.9525 12.2878 13.1011 12.325 13.1383 12.325H13.6584C13.6955 12.325 13.8442 12.2878 13.8442 12.0835C13.8442 11.9349 13.8442 11.7677 13.8442 11.582V9.40863C13.8627 9.26002 13.7884 9.22288 13.7141 9.2043ZM10.0176 11.3405C10.0176 11.3591 10.0176 11.3776 10.0176 11.3962C10.0176 11.4705 9.98043 11.582 9.79468 11.582C9.29313 11.582 8.7916 11.582 8.29005 11.582C8.12288 11.582 8.08574 11.5077 8.06715 11.4333C8.06715 11.4148 8.06715 11.3962 8.06715 11.3591C8.06715 11.0247 8.06715 10.6532 8.06715 10.3003C8.06715 10.0402 8.21576 10.0216 8.27149 10.0216C8.7916 10.0216 9.33029 10.0216 9.85042 10.0216C9.90612 10.0216 10.0362 10.0588 10.0362 10.2631C10.0176 10.6346 10.0176 10.9876 10.0176 11.3405Z" fill="white"/>
<path id="Vector_8" d="M13.5651 8.46071C13.9737 8.57215 14.3267 8.49787 14.6239 8.20065C14.8096 8.0149 14.9397 7.79199 14.9768 7.55051C14.9768 7.53193 14.9768 7.51335 14.9768 7.51335C14.9397 7.42046 14.9025 7.3276 14.8654 7.25329C14.4196 6.45455 13.9923 5.6558 13.5651 4.85705C13.5094 4.74561 13.3793 4.74561 13.3422 4.74561H7.67663C7.67663 4.74561 7.50946 4.74561 7.45374 4.85705C7.00791 5.6558 6.58069 6.47313 6.15344 7.25329C6.1163 7.3276 6.07914 7.43904 6.07914 7.55051C6.07914 7.56907 6.07914 7.56907 6.07914 7.58765C6.1163 7.84771 6.22775 8.07062 6.41352 8.23779C6.74788 8.53501 7.11938 8.60929 7.56519 8.46071C7.80668 8.36782 7.97385 8.21923 8.12246 7.99632C8.14104 7.97774 8.1596 7.95916 8.17818 7.94057C8.27107 7.88487 8.38252 7.90343 8.45682 7.99632C8.53111 8.10776 8.62399 8.21923 8.73546 8.29352C9.05124 8.53501 9.40418 8.57215 9.77568 8.46071C10.0172 8.3864 10.2029 8.21923 10.333 7.99632C10.4073 7.88487 10.593 7.86629 10.6673 7.99632C10.7045 8.03346 10.723 8.08918 10.7602 8.12635C10.946 8.34926 11.1874 8.47929 11.4661 8.51643C11.7261 8.55357 11.9862 8.47929 12.2276 8.33068C12.3577 8.23779 12.4691 8.12635 12.5434 7.99632C12.6363 7.88487 12.8035 7.88487 12.8778 7.99632C13.0264 8.23779 13.2121 8.3864 13.4908 8.46071H13.5651Z" fill="white"/>
</g>
</g>
</g>
</g>
</g>
</g>
<path id="Vector_9" d="M32.4374 19.4989C30.5439 19.4989 28.9661 19.1086 27.7038 18.328C26.4415 17.5307 25.5945 16.4594 25.1626 15.1141L29.4228 12.6477C30.0042 14.1259 31.0505 14.865 32.5619 14.865C33.6913 14.865 34.2561 14.566 34.2561 13.9681C34.2561 13.802 34.2145 13.6525 34.1315 13.5196C34.0484 13.3868 33.8907 13.2705 33.6581 13.1709C33.4256 13.0712 33.218 12.9965 33.0353 12.9466C32.8692 12.8802 32.5702 12.7889 32.1384 12.6726C31.7066 12.5563 31.3827 12.465 31.1668 12.3985C27.6955 11.3522 25.9599 9.48366 25.9599 6.793C25.9599 5.19854 26.5329 3.87812 27.6789 2.83176C28.8415 1.78539 30.3612 1.26221 32.2381 1.26221C33.7163 1.26221 35.0367 1.611 36.1993 2.30857C37.3785 3.00615 38.2422 4.011 38.7903 5.32311L34.6547 7.73972C34.173 6.51065 33.3758 5.89612 32.263 5.89612C31.8311 5.89612 31.499 5.98747 31.2664 6.17017C31.0505 6.33626 30.9426 6.55217 30.9426 6.81792C30.9426 7.18331 31.1336 7.46567 31.5156 7.66498C31.9142 7.86428 32.6699 8.12172 33.7827 8.43729C34.6131 8.68643 35.2941 8.92726 35.8256 9.15979C36.3571 9.3757 36.9135 9.69127 37.4948 10.1065C38.0761 10.5051 38.508 11.0283 38.7903 11.676C39.0893 12.3072 39.2388 13.0546 39.2388 13.9183C39.2388 15.6954 38.6242 17.074 37.3952 18.0539C36.1827 19.0172 34.5301 19.4989 32.4374 19.4989ZM44.8553 14.4414C45.2539 15.2719 46.101 15.6871 47.3965 15.6871C48.1605 15.6871 48.8664 15.4214 49.5141 14.8899L52.5287 17.4311C51.283 18.7764 49.5224 19.4491 47.247 19.4491C45.121 19.4491 43.4103 18.8345 42.1148 17.6055C40.8359 16.3598 40.1965 14.7985 40.1965 12.9217C40.1965 11.0283 40.8193 9.45044 42.065 8.18816C43.3273 6.92588 44.9134 6.29473 46.8235 6.29473C48.7169 6.29473 50.2698 6.91757 51.4823 8.16325C52.7113 9.39231 53.3259 10.9453 53.3259 12.8221C53.3259 13.3702 53.2594 13.91 53.1266 14.4414H44.8553ZM44.7806 11.4767H48.966C48.6837 10.4802 48.011 9.98193 46.948 9.98193C45.8684 9.98193 45.1459 10.4802 44.7806 11.4767ZM59.1907 9.06013C59.4232 8.21307 59.88 7.55702 60.561 7.09197C61.2419 6.62691 62.0309 6.39439 62.9277 6.39439V11.3771C61.9312 11.2442 61.0592 11.4435 60.3118 11.975C59.5644 12.4899 59.1907 13.3203 59.1907 14.4664V19.1003H54.5817V6.64352H59.1907V9.06013ZM72.2821 6.64352H77.3894L72.6558 19.1003H67.9223L63.1887 6.64352H68.296L70.2891 12.8719L72.2821 6.64352ZM81.7682 14.4414C82.1668 15.2719 83.0138 15.6871 84.3093 15.6871C85.0734 15.6871 85.7792 15.4214 86.427 14.8899L89.4415 17.4311C88.1958 18.7764 86.4353 19.4491 84.1599 19.4491C82.0339 19.4491 80.3232 18.8345 79.0277 17.6055C77.7488 16.3598 77.1093 14.7985 77.1093 12.9217C77.1093 11.0283 77.7322 9.45044 78.9779 8.18816C80.2401 6.92588 81.8263 6.29473 83.7363 6.29473C85.6298 6.29473 87.1827 6.91757 88.3952 8.16325C89.6242 9.39231 90.2388 10.9453 90.2388 12.8221C90.2388 13.3702 90.1723 13.91 90.0394 14.4414H81.7682ZM81.6934 11.4767H85.8789C85.5965 10.4802 84.9239 9.98193 83.8609 9.98193C82.7813 9.98193 82.0588 10.4802 81.6934 11.4767ZM99.2176 6.64352H103.827V19.1003H99.2176V17.8795C98.4536 18.9259 97.3408 19.4491 95.8792 19.4491C94.5172 19.4491 93.421 18.984 92.5906 18.0539C91.7767 17.1072 91.3698 15.7037 91.3698 13.8435V6.64352H95.9788V13.3453C95.9788 14.4581 96.4937 15.0145 97.5235 15.0145C98.0716 15.0145 98.4868 14.8401 98.7691 14.4913C99.0681 14.1425 99.2176 13.6608 99.2176 13.0463V6.64352ZM113.668 6.29473C115.346 6.29473 116.716 6.91757 117.779 8.16325C118.842 9.40892 119.373 10.9785 119.373 12.8719C119.373 14.7653 118.842 16.3349 117.779 17.5805C116.716 18.8262 115.346 19.4491 113.668 19.4491C112.24 19.4491 111.127 18.9591 110.33 17.9792V24.083H105.721V6.64352H110.33V7.76463C111.127 6.7847 112.24 6.29473 113.668 6.29473ZM110.928 14.5411C111.343 14.9895 111.883 15.2138 112.547 15.2138C113.211 15.2138 113.743 14.9895 114.142 14.5411C114.557 14.0927 114.764 13.5363 114.764 12.8719C114.764 12.2075 114.557 11.6511 114.142 11.2027C113.743 10.7542 113.211 10.53 112.547 10.53C111.883 10.53 111.343 10.7542 110.928 11.2027C110.529 11.6511 110.33 12.2075 110.33 12.8719C110.33 13.5363 110.529 14.0927 110.928 14.5411Z" fill="#072A85"/>
</g>
<defs>
<clipPath id="clip0_215_4374">
<rect width="120" height="24.083" fill="white"/>
</clipPath>
</defs>
</svg>
